<svg xmlns="http://www.w3.org/2000/svg" viewBox="0 0 509.73 128.73"><defs><style>.cls-1{fill:#32dbf0;}</style></defs><g id="Layer_2" data-name="Layer 2"><g id="Layer_1-2" data-name="Layer 1"><path class="cls-1" d="M297.17,13.06c48,13.71,96,38,145.14,29.57,10.47-1.79,20.71-5.05,31.31-5.7s22.07,1.78,29.27,9.59c11.14,12.08,7.54,32.26-2.59,45.2C486,110,462.35,118.11,439.62,122.89c-29.65,6.23-60.59,8.37-90.21,2-39.1-8.44-73.38-31-108.39-50.35s-74-36.27-113.7-31.75C92.11,46.77,61.15,67,27.91,79.29,21.36,81.72,14,83.83,7.54,81.15c-7.2-3-10.38-14.45-4.41-20C6.57,58,11,55.62,15,53.15q7.11-4.44,14.44-8.52A349.5,349.5,0,0,1,90.78,17.85,359.74,359.74,0,0,1,223.1.59a342.57,342.57,0,0,1,66.16,10.32C291.9,11.6,294.54,12.31,297.17,13.06Z"/></g></g></svg>