<svg xmlns="http://www.w3.org/2000/svg" xmlns:xlink="http://www.w3.org/1999/xlink" viewBox="0 0 840.09 88.1"><defs><style>.cls-1{fill:#272727;}.cls-2{fill:#3d3d3d;}.cls-3{fill:url(#linear-gradient);}.cls-4{fill:url(#linear-gradient-2);}.cls-5{fill:url(#linear-gradient-3);}.cls-6{fill:url(#linear-gradient-4);}.cls-7{fill:url(#linear-gradient-5);}.cls-8{fill:url(#linear-gradient-6);}.cls-9{fill:url(#linear-gradient-7);}.cls-10{fill:url(#linear-gradient-8);}.cls-11{fill:url(#linear-gradient-9);}.cls-12{fill:url(#linear-gradient-10);}.cls-13{fill:url(#linear-gradient-11);}.cls-14{fill:#ff0181;}.cls-15{fill:url(#linear-gradient-12);}.cls-16{fill:url(#linear-gradient-13);}.cls-17{fill:#23ff00;}.cls-18{fill:none;}.cls-19{fill:url(#New_Gradient_Swatch_copy);}.cls-20{fill:url(#New_Gradient_Swatch_copy-2);}.cls-21{fill:url(#linear-gradient-14);}.cls-22{fill:url(#linear-gradient-15);}.cls-23{fill:#900dff;}.cls-24{fill:url(#linear-gradient-16);}.cls-25{fill:url(#linear-gradient-17);}.cls-26{fill:url(#linear-gradient-18);}.cls-27{fill:#32dbf0;}.cls-28{fill:url(#linear-gradient-19);}.cls-29{fill:url(#linear-gradient-20);}.cls-30{fill:url(#linear-gradient-21);}.cls-31{fill:#fae100;}</style><linearGradient id="linear-gradient" x1="180.26" y1="11.14" x2="197.86" y2="11.14" gradientUnits="userSpaceOnUse"><stop offset="0" stop-color="#231f20"/><stop offset="0.01" stop-color="#242121"/><stop offset="0.15" stop-color="#323131"/><stop offset="0.31" stop-color="#3a3a3a"/><stop offset="0.53" stop-color="#3d3d3d"/><stop offset="0.71" stop-color="#3b3a3a"/><stop offset="0.85" stop-color="#333131"/><stop offset="0.97" stop-color="#252122"/><stop offset="0.98" stop-color="#231f20"/></linearGradient><linearGradient id="linear-gradient-2" x1="114.49" y1="76.86" x2="154.08" y2="76.86" gradientUnits="userSpaceOnUse"><stop offset="0" stop-color="#231f20"/><stop offset="0.07" stop-color="#2b2929"/><stop offset="0.22" stop-color="#353435"/><stop offset="0.43" stop-color="#3b3b3b"/><stop offset="1" stop-color="#3d3d3d"/></linearGradient><linearGradient id="linear-gradient-3" x1="48.4" y1="76.86" x2="88.01" y2="76.86" gradientUnits="userSpaceOnUse"><stop offset="0" stop-color="#231f20"/><stop offset="0.07" stop-color="#2b2929"/><stop offset="0.22" stop-color="#353435"/><stop offset="0.43" stop-color="#3b3b3b"/><stop offset="1" stop-color="#3d3d3d"/><stop offset="1" stop-color="#414042"/></linearGradient><linearGradient id="linear-gradient-4" x1="48.4" y1="11.14" x2="88.01" y2="11.14" xlink:href="#linear-gradient-3"/><linearGradient id="linear-gradient-5" x1="235.15" y1="32.86" x2="235.15" y2="22.28" gradientUnits="userSpaceOnUse"><stop offset="0" stop-color="#231f20"/><stop offset="0.01" stop-color="#242121"/><stop offset="0.15" stop-color="#323131"/><stop offset="0.31" stop-color="#3a3a3a"/><stop offset="0.53" stop-color="#3d3d3d"/><stop offset="0.72" stop-color="#3b3a3a"/><stop offset="0.86" stop-color="#333131"/><stop offset="0.99" stop-color="#252122"/><stop offset="1" stop-color="#231f20"/></linearGradient><linearGradient id="linear-gradient-6" x1="274.75" y1="65.73" x2="274.75" y2="55.14" xlink:href="#linear-gradient-5"/><linearGradient id="linear-gradient-7" x1="301.85" y1="32.86" x2="301.85" y2="22.28" xlink:href="#linear-gradient-5"/><linearGradient id="linear-gradient-8" x1="341.44" y1="65.73" x2="341.44" y2="55.14" xlink:href="#linear-gradient-5"/><linearGradient id="linear-gradient-9" x1="180.26" y1="49.75" x2="197.86" y2="49.75" xlink:href="#linear-gradient"/><linearGradient id="linear-gradient-10" x1="404.49" y1="76.91" x2="444.09" y2="76.91" xlink:href="#linear-gradient-2"/><linearGradient id="linear-gradient-11" x1="404.49" y1="11.19" x2="444.09" y2="11.19" xlink:href="#linear-gradient-2"/><linearGradient id="linear-gradient-12" x1="762.27" y1="34.18" x2="762.27" y2="21.1" gradientUnits="userSpaceOnUse"><stop offset="0" stop-color="#414042"/><stop offset="0.04" stop-color="#3c6037"/><stop offset="0.09" stop-color="#358a28"/><stop offset="0.15" stop-color="#30ae1c"/><stop offset="0.21" stop-color="#2bcc12"/><stop offset="0.27" stop-color="#27e20a"/><stop offset="0.34" stop-color="#25f204"/><stop offset="0.42" stop-color="#23fc01"/><stop offset="0.53" stop-color="#23ff00"/><stop offset="0.62" stop-color="#23fc01"/><stop offset="0.69" stop-color="#25f304"/><stop offset="0.75" stop-color="#27e30a"/><stop offset="0.8" stop-color="#2bcd11"/><stop offset="0.85" stop-color="#2fb01b"/><stop offset="0.9" stop-color="#358d27"/><stop offset="0.95" stop-color="#3b6435"/><stop offset="0.98" stop-color="#414042"/></linearGradient><linearGradient id="linear-gradient-13" x1="801.87" y1="66.41" x2="801.87" y2="54.65" xlink:href="#linear-gradient-12"/><linearGradient id="New_Gradient_Swatch_copy" x1="541.36" y1="11.19" x2="562.32" y2="11.19" gradientUnits="userSpaceOnUse"><stop offset="0" stop-color="#414042"/><stop offset="0.04" stop-color="#60364c"/><stop offset="0.09" stop-color="#8a285a"/><stop offset="0.15" stop-color="#ae1c66"/><stop offset="0.21" stop-color="#cc1270"/><stop offset="0.27" stop-color="#e20a78"/><stop offset="0.34" stop-color="#f2057d"/><stop offset="0.42" stop-color="#fc0280"/><stop offset="0.53" stop-color="#ff0181"/><stop offset="0.62" stop-color="#fc0280"/><stop offset="0.69" stop-color="#f3057d"/><stop offset="0.75" stop-color="#e30a78"/><stop offset="0.8" stop-color="#cd1270"/><stop offset="0.85" stop-color="#b01b67"/><stop offset="0.9" stop-color="#8d275b"/><stop offset="0.95" stop-color="#64344e"/><stop offset="0.98" stop-color="#414042"/></linearGradient><linearGradient id="New_Gradient_Swatch_copy-2" x1="540.73" y1="49.8" x2="562.64" y2="49.8" xlink:href="#New_Gradient_Swatch_copy"/><linearGradient id="linear-gradient-14" x1="475.87" y1="76.91" x2="496.11" y2="76.91" gradientUnits="userSpaceOnUse"><stop offset="0" stop-color="#414042"/><stop offset="0.03" stop-color="#4e3860"/><stop offset="0.09" stop-color="#5f2d8a"/><stop offset="0.15" stop-color="#6e23ae"/><stop offset="0.21" stop-color="#7b1bcc"/><stop offset="0.27" stop-color="#8415e2"/><stop offset="0.34" stop-color="#8b10f2"/><stop offset="0.42" stop-color="#8f0efc"/><stop offset="0.53" stop-color="#900dff"/><stop offset="0.62" stop-color="#8f0efc"/><stop offset="0.69" stop-color="#8b10f3"/><stop offset="0.75" stop-color="#8414e3"/><stop offset="0.8" stop-color="#7b1acd"/><stop offset="0.85" stop-color="#6f22b0"/><stop offset="0.9" stop-color="#602c8d"/><stop offset="0.95" stop-color="#4f3764"/><stop offset="0.98" stop-color="#414042"/></linearGradient><linearGradient id="linear-gradient-15" x1="474.94" y1="11.18" x2="514.54" y2="11.18" gradientUnits="userSpaceOnUse"><stop offset="0" stop-color="#414042"/><stop offset="0.01" stop-color="#4b3a5a"/><stop offset="0.04" stop-color="#602c8c"/><stop offset="0.07" stop-color="#7121b5"/><stop offset="0.1" stop-color="#7f18d5"/><stop offset="0.12" stop-color="#8812ec"/><stop offset="0.15" stop-color="#8e0efa"/><stop offset="0.17" stop-color="#900dff"/></linearGradient><linearGradient id="linear-gradient-16" x1="711.6" y1="11.18" x2="744.46" y2="11.18" gradientUnits="userSpaceOnUse"><stop offset="0" stop-color="#414042"/><stop offset="0.01" stop-color="#3f5155"/><stop offset="0.02" stop-color="#3c7179"/><stop offset="0.04" stop-color="#398e99"/><stop offset="0.06" stop-color="#37a6b5"/><stop offset="0.08" stop-color="#35bacb"/><stop offset="0.11" stop-color="#34c9dc"/><stop offset="0.14" stop-color="#33d3e7"/><stop offset="0.19" stop-color="#32d9ee"/><stop offset="0.32" stop-color="#32dbf0"/></linearGradient><linearGradient id="linear-gradient-17" x1="711.81" y1="76.91" x2="744.67" y2="76.91" gradientUnits="userSpaceOnUse"><stop offset="0" stop-color="#414042"/><stop offset="0.01" stop-color="#3f5155"/><stop offset="0.02" stop-color="#3c7179"/><stop offset="0.04" stop-color="#398e99"/><stop offset="0.06" stop-color="#37a6b5"/><stop offset="0.08" stop-color="#35bacb"/><stop offset="0.1" stop-color="#34c9dc"/><stop offset="0.13" stop-color="#33d3e7"/><stop offset="0.18" stop-color="#32d9ee"/><stop offset="0.29" stop-color="#32dbf0"/></linearGradient><linearGradient id="linear-gradient-18" x1="711.6" y1="44.05" x2="744.46" y2="44.05" gradientUnits="userSpaceOnUse"><stop offset="0" stop-color="#414042"/><stop offset="0.01" stop-color="#3f5155"/><stop offset="0.03" stop-color="#3c7179"/><stop offset="0.05" stop-color="#398e99"/><stop offset="0.07" stop-color="#37a6b5"/><stop offset="0.1" stop-color="#35bacb"/><stop offset="0.13" stop-color="#34c9dc"/><stop offset="0.16" stop-color="#33d3e7"/><stop offset="0.21" stop-color="#32d9ee"/><stop offset="0.36" stop-color="#32dbf0"/></linearGradient><linearGradient id="linear-gradient-19" x1="607.59" y1="11.18" x2="612.8" y2="11.18" gradientUnits="userSpaceOnUse"><stop offset="0" stop-color="#414042"/><stop offset="0.03" stop-color="#5b5739"/><stop offset="0.09" stop-color="#857b2a"/><stop offset="0.14" stop-color="#a99b1d"/><stop offset="0.21" stop-color="#c7b412"/><stop offset="0.27" stop-color="#ddc80a"/><stop offset="0.34" stop-color="#edd604"/><stop offset="0.42" stop-color="#f7de01"/><stop offset="0.53" stop-color="#fae100"/><stop offset="0.62" stop-color="#f7de01"/><stop offset="0.69" stop-color="#eed604"/><stop offset="0.75" stop-color="#dec90a"/><stop offset="0.8" stop-color="#c8b612"/><stop offset="0.86" stop-color="#ab9d1c"/><stop offset="0.9" stop-color="#887e29"/><stop offset="0.95" stop-color="#5f5b37"/><stop offset="0.98" stop-color="#414042"/></linearGradient><linearGradient id="linear-gradient-20" x1="634.1" y1="52.7" x2="639.62" y2="52.7" xlink:href="#linear-gradient-19"/><linearGradient id="linear-gradient-21" x1="660.82" y1="11.18" x2="666.13" y2="11.18" xlink:href="#linear-gradient-19"/></defs><g id="Layer_2" data-name="Layer 2"><g id="Layer_1-2" data-name="Layer 1"><polygon class="cls-1" points="220.14 22.28 197.86 0.1 197.86 0 220.14 22.28"/><polygon class="cls-2" points="220.14 22.28 220.14 88 197.86 88 197.86 0.1 220.14 22.28"/><polygon class="cls-3" points="197.86 0.1 197.86 22.28 180.26 22.28 180.26 0 197.76 0 197.86 0.1"/><rect class="cls-4" x="114.49" y="65.73" width="39.59" height="22.28"/><rect class="cls-5" x="48.4" y="65.73" width="39.6" height="22.28"/><rect class="cls-6" x="48.4" width="39.6" height="22.28"/><rect class="cls-2" x="356.03" width="22.28" height="88"/><rect class="cls-7" x="224.01" y="22.28" width="22.28" height="10.58"/><rect class="cls-8" x="263.61" y="55.14" width="22.28" height="10.58"/><rect class="cls-9" x="290.71" y="22.28" width="22.28" height="10.58"/><rect class="cls-10" x="330.3" y="55.14" width="22.28" height="10.58"/><rect class="cls-11" x="180.26" y="38.61" width="17.6" height="22.28"/><polygon class="cls-2" points="48.4 0 48.4 88 26.13 65.73 26.13 22.28 48.4 0"/><rect class="cls-12" x="404.49" y="65.77" width="39.6" height="22.28"/><rect class="cls-13" x="404.49" y="0.05" width="39.6" height="22.28"/><polygon class="cls-2" points="404.49 0.05 404.49 88.05 382.21 65.78 382.21 22.33 404.49 0.05"/><polygon class="cls-2" points="114.49 0 114.49 88 92.2 65.73 92.2 0 114.49 0"/><line class="cls-1" x1="220.14" y1="22.28" x2="197.86"/><polygon class="cls-2" points="285.89 0 285.89 22.28 224.01 22.28 246.29 0 285.89 0"/><polygon class="cls-2" points="285.89 65.73 263.61 88 224.01 88 224.01 65.73 285.89 65.73"/><polygon class="cls-2" points="352.58 0 352.58 22.28 290.71 22.28 312.99 0 352.58 0"/><polygon class="cls-2" points="285.89 55.14 246.29 55.14 224.01 32.86 263.61 32.86 285.89 55.14"/><polygon class="cls-2" points="352.58 55.14 312.99 55.14 290.71 32.86 330.3 32.86 352.58 55.14"/><polygon class="cls-2" points="352.58 65.73 330.3 88 290.71 88 290.71 65.73 352.58 65.73"/><polygon class="cls-2" points="180.26 0 180.26 88 157.98 88 157.98 22.28 180.26 0"/><rect class="cls-2" x="817.81" width="22.28" height="22.28"/><rect class="cls-14" y="65.82" width="22.28" height="22.28"/><rect class="cls-15" x="751.13" y="22.33" width="22.28" height="10.58"/><rect class="cls-16" x="790.73" y="55.19" width="22.28" height="10.58"/><polygon class="cls-17" points="813.01 0.05 813.01 22.33 751.13 22.33 773.41 0.05 813.01 0.05"/><polygon class="cls-17" points="813.01 65.78 790.73 88.05 751.13 88.05 751.13 65.78 813.01 65.78"/><polygon class="cls-17" points="813.01 55.19 773.41 55.19 751.13 32.91 790.73 32.91 813.01 55.19"/><polygon class="cls-18" points="582.51 22.33 560.23 0.15 560.23 0.05 582.51 22.33"/><polygon class="cls-14" points="582.51 22.33 582.51 88.05 560.23 88.05 560.23 0.15 582.51 22.33"/><polygon class="cls-19" points="560.23 0.15 560.23 22.33 542.63 22.33 542.63 0.05 560.13 0.05 560.23 0.15"/><rect class="cls-20" x="542.63" y="38.66" width="17.6" height="22.28"/><line class="cls-18" x1="582.51" y1="22.33" x2="560.23" y2="0.05"/><polygon class="cls-14" points="542.63 0.05 542.63 88.05 520.35 88.05 520.35 22.33 542.63 0.05"/><rect class="cls-21" x="476.84" y="65.77" width="17.32" height="22.28"/><rect class="cls-22" x="476.84" y="0.05" width="39.6" height="22.28"/><polygon class="cls-23" points="476.84 0.05 476.84 88.05 454.56 65.77 454.56 22.32 476.84 0.05"/><polygon class="cls-23" points="516.44 44.1 516.44 65.78 494.17 88.05 494.17 44.1 516.44 44.1"/><rect class="cls-24" x="713.08" y="0.04" width="32.86" height="22.29"/><rect class="cls-25" x="713.08" y="65.77" width="32.86" height="22.29"/><rect class="cls-26" x="713.08" y="32.9" width="32.86" height="22.29"/><polygon class="cls-27" points="713.08 0.04 713.08 88.05 690.8 65.77 690.8 22.33 713.08 0.04"/><line class="cls-18" x1="687.84" y1="16.62" x2="687.83" y2="16.62"/><rect class="cls-28" x="607.99" y="0.04" width="4.23" height="22.28"/><rect class="cls-29" x="634.49" y="41.56" width="4.6" height="22.28"/><rect class="cls-30" x="661.37" y="0.04" width="4.18" height="22.28"/><polygon class="cls-31" points="607.99 0.04 607.99 88.05 585.71 88.05 585.71 22.32 607.99 0.04"/><polygon class="cls-31" points="687.83 22.31 687.83 88.05 665.55 88.05 665.55 0.04 687.83 22.31"/><polygon class="cls-31" points="634.49 22.32 634.49 63.84 612.22 41.56 612.22 0.04 634.49 22.32"/><polygon class="cls-31" points="661.37 0.04 661.37 41.56 639.09 63.84 639.09 22.32 661.37 0.04"/></g></g></svg>