<svg xmlns="http://www.w3.org/2000/svg" xmlns:xlink="http://www.w3.org/1999/xlink" viewBox="0 0 1918.8 954.07"><defs><style>.cls-1,.cls-2{fill:none;}.cls-2,.cls-3{stroke:#f2f2f2;}.cls-2{stroke-linecap:round;stroke-linejoin:round;stroke-width:2.61px;}.cls-3{fill:#f2f2f2;stroke-miterlimit:10;stroke-width:0.17px;}.cls-4{fill:url(#ClassicGames_Background);}</style><pattern id="ClassicGames_Background" data-name="ClassicGames Background" width="300" height="240" patternUnits="userSpaceOnUse" viewBox="0 0 300 240"><rect class="cls-1" width="300" height="240"/><polyline class="cls-2" points="241.25 224.84 241.25 214.5 210.14 214.5 210.14 224.84"/><polyline class="cls-2" points="251.07 245 251.07 224.84 241.25 224.84"/><polyline class="cls-2" points="210.14 224.84 200.33 224.84 200.33 245"/><rect class="cls-2" x="210.06" y="234.92" width="10.6" height="10.08"/><rect class="cls-2" x="230.56" y="234.92" width="10.6" height="10.08"/><path class="cls-2" d="M110.1,239.87a19.63,19.63,0,0,1-34.62,12.68H65.14a19.63,19.63,0,1,1-15-32.32H90.46A19.64,19.64,0,0,1,110.1,239.87Z"/><rect class="cls-3" x="46.68" y="229.97" width="6.6" height="19.81" rx="1.63"/><path class="cls-3" d="M40.07,241.54V238.2a1.63,1.63,0,0,1,1.63-1.63H58.25a1.63,1.63,0,0,1,1.63,1.63v3.34a1.63,1.63,0,0,1-1.63,1.63H41.7A1.63,1.63,0,0,1,40.07,241.54Z"/><circle class="cls-3" cx="90.81" cy="233.27" r="3.3"/><circle class="cls-3" cx="84.21" cy="239.87" r="3.3"/><circle class="cls-3" cx="97.41" cy="239.87" r="3.3"/><polyline class="cls-2" points="91.25 104.84 91.25 94.5 60.14 94.5 60.14 104.84"/><polyline class="cls-2" points="101.07 125 101.07 104.84 91.25 104.84"/><polyline class="cls-2" points="60.14 104.84 50.33 104.84 50.33 125"/><rect class="cls-2" x="60.06" y="114.92" width="10.6" height="10.08"/><rect class="cls-2" x="80.56" y="114.92" width="10.6" height="10.08"/><line class="cls-2" x1="60.06" y1="125" x2="70.66" y2="125"/><line class="cls-2" x1="80.56" y1="125" x2="91.16" y2="125"/><line class="cls-2" x1="60.06" y1="145.5" x2="70.83" y2="145.5"/><polyline class="cls-2" points="101.07 145.5 111.32 145.5 111.32 125 101.07 125"/><line class="cls-2" x1="80.56" y1="145.5" x2="91.33" y2="145.5"/><polyline class="cls-2" points="50.33 125 39.9 125 39.9 145.5 50.33 145.5"/><polyline class="cls-2" points="50.33 145.5 50.33 135.25 60.06 135.25 60.06 145.5"/><polyline class="cls-2" points="70.83 145.5 70.83 135.25 80.56 135.25 80.56 145.5"/><polyline class="cls-2" points="91.33 145.5 91.33 135.25 101.07 135.25 101.07 145.5"/><path class="cls-2" d="M260.1,119.87a19.63,19.63,0,0,1-34.62,12.68H215.14a19.63,19.63,0,1,1-15-32.32h40.31A19.64,19.64,0,0,1,260.1,119.87Z"/><rect class="cls-3" x="196.68" y="109.97" width="6.6" height="19.81" rx="1.63"/><path class="cls-3" d="M190.07,121.54V118.2a1.63,1.63,0,0,1,1.63-1.63h16.55a1.63,1.63,0,0,1,1.63,1.63v3.34a1.63,1.63,0,0,1-1.63,1.63H191.7A1.63,1.63,0,0,1,190.07,121.54Z"/><circle class="cls-3" cx="240.81" cy="113.27" r="3.3"/><circle class="cls-3" cx="234.21" cy="119.87" r="3.3"/><circle class="cls-3" cx="247.41" cy="119.87" r="3.3"/><circle class="cls-3" cx="240.81" cy="126.47" r="3.3"/><polyline class="cls-2" points="251.07 5 251.07 -15.16 241.25 -15.16"/><polyline class="cls-2" points="210.14 -15.16 200.33 -15.16 200.33 5"/><rect class="cls-2" x="210.06" y="-5.08" width="10.6" height="10.08"/><rect class="cls-2" x="230.56" y="-5.08" width="10.6" height="10.08"/><line class="cls-2" x1="210.06" y1="5" x2="220.66" y2="5"/><line class="cls-2" x1="230.56" y1="5" x2="241.16" y2="5"/><line class="cls-2" x1="210.06" y1="25.5" x2="220.83" y2="25.5"/><polyline class="cls-2" points="251.07 25.5 261.32 25.5 261.32 5 251.07 5"/><line class="cls-2" x1="230.56" y1="25.5" x2="241.33" y2="25.5"/><polyline class="cls-2" points="200.33 5 189.9 5 189.9 25.5 200.33 25.5"/><polyline class="cls-2" points="200.33 25.5 200.33 15.25 210.06 15.25 210.06 25.5"/><polyline class="cls-2" points="220.83 25.5 220.83 15.25 230.56 15.25 230.56 25.5"/><polyline class="cls-2" points="241.34 25.5 241.34 15.25 251.07 15.25 251.07 25.5"/><path class="cls-2" d="M110.1-.13A19.64,19.64,0,0,1,90.46,19.51a19.57,19.57,0,0,1-15-7H65.14a19.57,19.57,0,0,1-15,7A19.64,19.64,0,0,1,30.52-.13,19.64,19.64,0,0,1,50.15-19.77H90.46A19.64,19.64,0,0,1,110.1-.13Z"/><rect class="cls-3" x="46.68" y="-10.03" width="6.6" height="19.81" rx="1.63"/><path class="cls-3" d="M40.07,1.54V-1.8A1.63,1.63,0,0,1,41.7-3.43H58.25A1.63,1.63,0,0,1,59.88-1.8V1.54a1.63,1.63,0,0,1-1.63,1.63H41.7A1.63,1.63,0,0,1,40.07,1.54Z"/><circle class="cls-3" cx="84.21" cy="-0.13" r="3.3"/><circle class="cls-3" cx="97.41" cy="-0.13" r="3.3"/><circle class="cls-3" cx="90.81" cy="6.47" r="3.3"/></pattern></defs><g id="Layer_2" data-name="Layer 2"><g id="Layer_1-2" data-name="Layer 1"><rect class="cls-4" width="1918.8" height="954.07"/></g></g></svg>