<svg xmlns="http://www.w3.org/2000/svg" viewBox="0 0 187.22 222.88"><defs><style>.cls-1{fill:#23ff00;}</style></defs><g id="Layer_2" data-name="Layer 2"><g id="Layer_1-2" data-name="Layer 1"><path class="cls-1" d="M153.58.09c13.6-1.18,25.94,9.86,30.57,22.71s3.21,27,1.06,40.51c-4.16,26-11.22,52.46-27.26,73.39-19.66,25.66-50.27,40-79.66,53.48L36.34,209.36c-6.9,3.16-13.78,6.36-20.71,9.47-3.14,1.41-10.18,5.81-13.72,3.28-5.42-3.87,2.15-15.29,4.75-18.68,6.38-8.34,17-13.43,25.22-19.74A340.06,340.06,0,0,0,124.6,74.51a332.32,332.32,0,0,0,16.76-36.32C142.75,34.62,152.37.19,153.58.09Z"/></g></g></svg>