<svg xmlns="http://www.w3.org/2000/svg" viewBox="0 0 407.93 427.3"><defs><style>.cls-1{fill:#23ff00;}</style></defs><g id="Layer_2" data-name="Layer 2"><g id="Layer_1-2" data-name="Layer 1"><path class="cls-1" d="M41.73,184.2C48.53,147,53.91,108.91,69.84,74.61S114.51,9.54,151.56,1.93C182-4.33,213.36,5.63,242,17.72A589.47,589.47,0,0,1,348.16,76.05c29,20.08,58.57,47.27,59.73,82.53.95,28.58-17.69,54.47-39.88,72.51s-48.38,30.56-71.13,47.9c-51.12,39-83,100.65-138.4,133.25-20.88,12.3-46.62,19.9-69.37,11.55C73.76,418.15,61.82,406,50.67,394.08Q31,373,12.36,350.93c-6.9-8.16-14.13-18-12-28.5,1-4.65,3.68-8.62,5.63-12.88,2.32-5.06,2.21-8.82.89-14.11-2-8.18,2.05-12.4,6.13-19,10.67-17.16,16.61-38,21.41-57.45C37.29,207.51,39.6,195.87,41.73,184.2Z"/></g></g></svg>