<svg xmlns="http://www.w3.org/2000/svg" viewBox="0 0 1894.05 820.74"><defs><style>.cls-1{fill:#ff0181;}.cls-2{fill:#fae100;}.cls-3{fill:#900dff;}.cls-4{fill:#32dbf0;}.cls-5{fill:#23ff00;}</style></defs><g id="Layer_2" data-name="Layer 2"><g id="Layer_1-2" data-name="Layer 1"><path class="cls-1" d="M186.77,181.81c43-20.27,93-31.77,140.37-22.23,55.75,11.23,99.24,49.1,148.5,75.11,86.17,45.51,191.47,54.42,290.47,42.16s193.49-44.17,286.9-76.1c65-22.23,130.47-44.77,189.64-77.67,64.63-35.93,121.83-84.19,193.09-107.93C1568.3-29,1726.44,27.47,1809,130.64s95.86,242.38,58.39,364.9c-31.92,104.37-100.4,201.5-200,262.28S1436,839.51,1323,802c-90.67-30.07-162.33-93.26-246.22-136.4C999.33,625.81,912,603.47,823.86,591c-197.08-27.8-402.41-6.78-587.49,60.15-34.79,12.58-69.45,26.89-106.64,31.21s-78.38-3.11-103.54-28.1C-8.38,620-1.74,567.1,7,521.45Q11.92,496,16.8,470.59c2.21-11.49,2.94-22.39.57-33.87-2.21-10.72-3.26-20.89-1.8-31.8a245,245,0,0,1,8.49-38.22,285.18,285.18,0,0,1,33.19-71.54,309.24,309.24,0,0,1,52.27-61.69,315.13,315.13,0,0,1,68.24-47.23C180.73,184.71,183.73,183.21,186.77,181.81Z"/><path class="cls-2" d="M106.88,286.89c92.73-80.14,222.68-104.65,345-97.51s241,42.42,360.76,68.5c67.93,14.8,139.13,26.61,206.33,8.82,131.36-34.78,216-173.12,347.72-206.47,81.06-20.52,166.07,2.43,246.52,25.26,69.2,19.64,145.88,45.16,178.73,109.16,15.4,30,19.21,65.75,39.19,92.94,14.35,19.53,36,33.08,48.79,53.67,11.65,18.8,14.73,41.77,14,63.87-2.44,73-43.76,140.51-98.17,189.23s-121.2,81.16-188,110.74c-80.14,35.49-163.56,68.21-251.09,72.74C1148.67,788.61,967.54,642,765.5,591.21c-159.53-40.1-334-17.46-478,62-33.08,18.26-64.83,39.49-100.31,52.49s-76.33,16.94-110.28.37c-28-13.69-49.58-44.48-47.93-76.33.32-6.33,2-12.76.06-19-2.28-7.31-6.42-14.15-9.23-21.28A216.35,216.35,0,0,1,7.76,546c-5.08-30-4.09-60.88,1.75-90.7a303.89,303.89,0,0,1,89-160.85Q102.62,290.57,106.88,286.89Z"/><path class="cls-3" d="M52.71,423.85c26.42-54.38,61.15-137.47,164.73-181,101.7-42.7,215.94-21,323.23,1.29l228.94,47.55c63.71,13.23,129.15,26.5,193.09,14.59C1114.77,278,1219.08,117,1368.87,77.19c131.07-34.87,271,33.21,365.31,136.38,50.75,55.52,92.9,124.66,99.53,201.87C1844,535.39,1763.13,649,1660.83,700s-220.92,49.75-332.42,30.75-220.26-54.62-332.31-69.5c-110-14.6-221.59-9-331.72-22.2-77.27-9.25-153.55-27.73-231.16-32.88-93.66-6.22-188.08,7-281.31-4.38-43.5-5.33-90-18.35-116.8-55.29s-13.29-72.15,17.6-122.64"/><path class="cls-4" d="M538.79,662.74c48,13.7,96,38,145.15,29.56,10.46-1.79,20.71-5,31.3-5.7s22.08,1.79,29.27,9.59c11.14,12.08,7.54,32.26-2.58,45.2-14.31,18.29-38,26.4-60.69,31.17-29.65,6.23-60.58,8.37-90.2,2-39.11-8.44-73.39-31-108.4-50.35s-73.95-36.27-113.7-31.75c-35.21,4-66.17,24.24-99.4,36.53-6.56,2.42-13.92,4.53-20.38,1.86-7.19-3-10.38-14.46-4.4-20,3.43-3.19,7.88-5.55,11.83-8q7.13-4.44,14.45-8.53a349.18,349.18,0,0,1,61.37-26.78,360.28,360.28,0,0,1,132.31-17.26,342.57,342.57,0,0,1,66.16,10.32C533.53,661.27,536.17,662,538.79,662.74Z"/><path class="cls-5" d="M1855.76,586.55c13.61-1.18,26,9.86,30.57,22.71s3.21,27,1.06,40.51c-4.16,26-11.22,52.46-27.26,73.39-19.66,25.66-50.26,40-79.66,53.48l-41.94,19.18c-6.91,3.16-13.79,6.36-20.72,9.47-3.14,1.41-10.18,5.81-13.72,3.28-5.42-3.87,2.15-15.29,4.75-18.68,6.38-8.34,17-13.43,25.22-19.74A340.21,340.21,0,0,0,1826.79,661a332.25,332.25,0,0,0,16.75-36.32C1844.94,621.08,1854.55,586.65,1855.76,586.55Z"/></g></g></svg>