<svg xmlns="http://www.w3.org/2000/svg" xmlns:xlink="http://www.w3.org/1999/xlink" viewBox="0 0 1918.8 1592.09"><defs><style>.cls-1,.cls-2{fill:none;}.cls-2,.cls-3{stroke:#f2f2f2;}.cls-2{stroke-linecap:round;stroke-linejoin:round;stroke-width:2.61px;}.cls-3{fill:#f2f2f2;stroke-miterlimit:10;stroke-width:0.17px;}.cls-4{fill:url(#ClassicGames_Background);}.cls-5{fill:url(#linear-gradient);}.cls-6{fill:#ff0181;}.cls-7{fill:#fae100;}.cls-8{fill:#900dff;}.cls-9{fill:#32dbf0;}.cls-10{fill:#23ff00;}</style><pattern id="ClassicGames_Background" data-name="ClassicGames Background" width="300" height="240" patternUnits="userSpaceOnUse" viewBox="0 0 300 240"><rect class="cls-1" width="300" height="240"/><polyline class="cls-2" points="241.25 224.84 241.25 214.5 210.14 214.5 210.14 224.84"/><polyline class="cls-2" points="251.07 245 251.07 224.84 241.25 224.84"/><polyline class="cls-2" points="210.14 224.84 200.33 224.84 200.33 245"/><rect class="cls-2" x="210.06" y="234.92" width="10.6" height="10.08"/><rect class="cls-2" x="230.56" y="234.92" width="10.6" height="10.08"/><path class="cls-2" d="M110.1,239.87a19.63,19.63,0,0,1-34.62,12.68H65.14a19.63,19.63,0,1,1-15-32.32H90.46A19.64,19.64,0,0,1,110.1,239.87Z"/><rect class="cls-3" x="46.68" y="229.97" width="6.6" height="19.81" rx="1.63"/><path class="cls-3" d="M40.07,241.54V238.2a1.63,1.63,0,0,1,1.63-1.63H58.25a1.63,1.63,0,0,1,1.63,1.63v3.34a1.63,1.63,0,0,1-1.63,1.63H41.7A1.63,1.63,0,0,1,40.07,241.54Z"/><circle class="cls-3" cx="90.81" cy="233.27" r="3.3"/><circle class="cls-3" cx="84.21" cy="239.87" r="3.3"/><circle class="cls-3" cx="97.41" cy="239.87" r="3.3"/><polyline class="cls-2" points="91.25 104.84 91.25 94.5 60.14 94.5 60.14 104.84"/><polyline class="cls-2" points="101.07 125 101.07 104.84 91.25 104.84"/><polyline class="cls-2" points="60.14 104.84 50.33 104.84 50.33 125"/><rect class="cls-2" x="60.06" y="114.92" width="10.6" height="10.08"/><rect class="cls-2" x="80.56" y="114.92" width="10.6" height="10.08"/><line class="cls-2" x1="60.06" y1="125" x2="70.66" y2="125"/><line class="cls-2" x1="80.56" y1="125" x2="91.16" y2="125"/><line class="cls-2" x1="60.06" y1="145.5" x2="70.83" y2="145.5"/><polyline class="cls-2" points="101.07 145.5 111.32 145.5 111.32 125 101.07 125"/><line class="cls-2" x1="80.56" y1="145.5" x2="91.33" y2="145.5"/><polyline class="cls-2" points="50.33 125 39.9 125 39.9 145.5 50.33 145.5"/><polyline class="cls-2" points="50.33 145.5 50.33 135.25 60.06 135.25 60.06 145.5"/><polyline class="cls-2" points="70.83 145.5 70.83 135.25 80.56 135.25 80.56 145.5"/><polyline class="cls-2" points="91.33 145.5 91.33 135.25 101.07 135.25 101.07 145.5"/><path class="cls-2" d="M260.1,119.87a19.63,19.63,0,0,1-34.62,12.68H215.14a19.63,19.63,0,1,1-15-32.32h40.31A19.64,19.64,0,0,1,260.1,119.87Z"/><rect class="cls-3" x="196.68" y="109.97" width="6.6" height="19.81" rx="1.63"/><path class="cls-3" d="M190.07,121.54V118.2a1.63,1.63,0,0,1,1.63-1.63h16.55a1.63,1.63,0,0,1,1.63,1.63v3.34a1.63,1.63,0,0,1-1.63,1.63H191.7A1.63,1.63,0,0,1,190.07,121.54Z"/><circle class="cls-3" cx="240.81" cy="113.27" r="3.3"/><circle class="cls-3" cx="234.21" cy="119.87" r="3.3"/><circle class="cls-3" cx="247.41" cy="119.87" r="3.3"/><circle class="cls-3" cx="240.81" cy="126.47" r="3.3"/><polyline class="cls-2" points="251.07 5 251.07 -15.16 241.25 -15.16"/><polyline class="cls-2" points="210.14 -15.16 200.33 -15.16 200.33 5"/><rect class="cls-2" x="210.06" y="-5.08" width="10.6" height="10.08"/><rect class="cls-2" x="230.56" y="-5.08" width="10.6" height="10.08"/><line class="cls-2" x1="210.06" y1="5" x2="220.66" y2="5"/><line class="cls-2" x1="230.56" y1="5" x2="241.16" y2="5"/><line class="cls-2" x1="210.06" y1="25.5" x2="220.83" y2="25.5"/><polyline class="cls-2" points="251.07 25.5 261.32 25.5 261.32 5 251.07 5"/><line class="cls-2" x1="230.56" y1="25.5" x2="241.33" y2="25.5"/><polyline class="cls-2" points="200.33 5 189.9 5 189.9 25.5 200.33 25.5"/><polyline class="cls-2" points="200.33 25.5 200.33 15.25 210.06 15.25 210.06 25.5"/><polyline class="cls-2" points="220.83 25.5 220.83 15.25 230.56 15.25 230.56 25.5"/><polyline class="cls-2" points="241.34 25.5 241.34 15.25 251.07 15.25 251.07 25.5"/><path class="cls-2" d="M110.1-.13A19.64,19.64,0,0,1,90.46,19.51a19.57,19.57,0,0,1-15-7H65.14a19.57,19.57,0,0,1-15,7A19.64,19.64,0,0,1,30.52-.13,19.64,19.64,0,0,1,50.15-19.77H90.46A19.64,19.64,0,0,1,110.1-.13Z"/><rect class="cls-3" x="46.68" y="-10.03" width="6.6" height="19.81" rx="1.63"/><path class="cls-3" d="M40.07,1.54V-1.8A1.63,1.63,0,0,1,41.7-3.43H58.25A1.63,1.63,0,0,1,59.88-1.8V1.54a1.63,1.63,0,0,1-1.63,1.63H41.7A1.63,1.63,0,0,1,40.07,1.54Z"/><circle class="cls-3" cx="84.21" cy="-0.13" r="3.3"/><circle class="cls-3" cx="97.41" cy="-0.13" r="3.3"/><circle class="cls-3" cx="90.81" cy="6.47" r="3.3"/></pattern><linearGradient id="linear-gradient" x1="959.4" y1="1592.09" x2="959.4" y2="1059.57" gradientUnits="userSpaceOnUse"><stop offset="0" stop-color="#fff"/><stop offset="1" stop-color="#fff" stop-opacity="0"/></linearGradient></defs><g id="Layer_2" data-name="Layer 2"><g id="Layer_1-2" data-name="Layer 1"><rect class="cls-4" width="1918.8" height="1592.09"/><rect class="cls-5" y="1059.57" width="1918.8" height="532.51"/><path class="cls-6" d="M195.2,356.34c43-20.26,93-31.76,140.37-22.22,55.75,11.23,99.24,49.09,148.5,75.11,86.16,45.5,191.46,54.41,290.47,42.16s193.49-44.18,286.9-76.1c65-22.23,130.47-44.77,189.64-77.67,64.63-35.94,121.82-84.2,193.09-107.93,132.56-44.15,290.7,12.32,373.22,115.48s95.87,242.38,58.4,364.91c-31.92,104.36-100.4,201.5-200,262.27s-231.35,81.7-344.32,44.22c-90.67-30.08-162.34-93.26-246.23-136.4-77.44-39.82-164.77-62.16-252.91-74.59-197.09-27.8-402.41-6.78-587.49,60.15-34.79,12.58-69.46,26.88-106.65,31.21s-78.37-3.11-103.53-28.11C.05,794.48,6.68,741.63,15.45,696l9.78-50.87c2.2-11.48,2.94-22.38.57-33.87-2.21-10.71-3.27-20.88-1.81-31.79a245.87,245.87,0,0,1,8.49-38.22,285.28,285.28,0,0,1,33.2-71.55A309.24,309.24,0,0,1,118,408a314.89,314.89,0,0,1,68.24-47.23C189.16,359.25,192.15,357.75,195.2,356.34Z"/><path class="cls-7" d="M115.3,461.42C208,381.29,338,356.77,460.34,363.91s241,42.42,360.77,68.51c67.92,14.8,139.13,26.6,206.33,8.81,131.35-34.77,216-173.12,347.71-206.46,81.07-20.52,166.08,2.43,246.52,25.25,69.21,19.64,145.89,45.16,178.73,109.16,15.41,30,19.22,65.76,39.2,92.95,14.35,19.52,36,33.07,48.79,53.67,11.65,18.8,14.72,41.76,14,63.86-2.44,73-43.76,140.51-98.17,189.23s-121.21,81.17-188,110.74c-80.13,35.49-163.56,68.22-251.08,72.75C1157.09,963.15,976,816.53,773.93,765.75c-159.54-40.11-334-17.46-478,62-33.07,18.26-64.82,39.49-100.3,52.48s-76.33,17-110.28.37c-28-13.68-49.58-44.48-47.94-76.32.33-6.34,2-12.77.06-19-2.27-7.31-6.41-14.15-9.23-21.29a217.76,217.76,0,0,1-12.07-43.55c-5.08-30-4.08-60.88,1.75-90.71a304,304,0,0,1,89-160.84Q111,465.11,115.3,461.42Z"/><path class="cls-8" d="M61.14,598.39c26.41-54.38,61.14-137.48,164.72-181,101.71-42.7,216-21,323.23,1.29L778,466.26c63.71,13.24,129.15,26.5,193.09,14.59,152.07-28.32,256.38-189.27,406.16-229.12,131.08-34.87,271,33.2,365.32,136.38,50.74,55.51,92.89,124.65,99.53,201.87,10.3,119.95-70.58,233.57-172.89,284.54s-220.92,49.75-332.42,30.75-220.26-54.61-332.31-69.49c-110-14.61-221.58-9-331.71-22.2-77.28-9.26-153.56-27.73-231.17-32.89-93.65-6.22-188.07,7-281.3-4.38C116.84,771,70.33,758,43.53,721S30.24,648.87,61.14,598.39"/><path class="cls-9" d="M547.22,837.27c48,13.71,96,38,145.14,29.56,10.47-1.78,20.71-5.05,31.31-5.7s22.07,1.79,29.27,9.6c11.14,12.07,7.54,32.25-2.59,45.19-14.31,18.3-38,26.4-60.68,31.18-29.65,6.23-60.59,8.36-90.21,2-39.1-8.43-73.39-31-108.4-50.34S417.12,862.45,377.37,867c-35.21,4-66.17,24.24-99.41,36.53-6.55,2.43-13.92,4.53-20.37,1.86-7.2-3-10.38-14.45-4.41-20,3.44-3.18,7.89-5.54,11.84-8q7.11-4.44,14.44-8.52a350.29,350.29,0,0,1,61.37-26.79,361.44,361.44,0,0,1,65.36-14.81,356.88,356.88,0,0,1,67-2.44,342.57,342.57,0,0,1,66.16,10.32Q543.27,836.14,547.22,837.27Z"/><path class="cls-10" d="M1864.18,761.08c13.61-1.17,26,9.86,30.58,22.71s3.21,27,1,40.51c-4.16,26.05-11.22,52.46-27.26,73.4-19.65,25.66-50.26,40-79.65,53.48l-42,19.17c-6.9,3.16-13.79,6.37-20.71,9.48-3.15,1.4-10.18,5.8-13.72,3.28-5.42-3.88,2.15-15.3,4.74-18.69,6.39-8.33,17-13.42,25.23-19.74a340.25,340.25,0,0,0,92.72-109.17A332.47,332.47,0,0,0,1852,799.18C1853.36,795.61,1863,761.18,1864.18,761.08Z"/></g></g></svg>