<svg xmlns="http://www.w3.org/2000/svg" viewBox="0 0 1887.25 820.74"><defs><style>.cls-1{fill:#ff0181;}</style></defs><g id="Layer_2" data-name="Layer 2"><g id="Layer_1-2" data-name="Layer 1"><path class="cls-1" d="M186.77,181.81c43-20.27,93-31.77,140.37-22.23,55.75,11.23,99.24,49.1,148.5,75.11,86.17,45.51,191.47,54.42,290.47,42.16s193.49-44.17,286.9-76.1c65-22.23,130.47-44.77,189.64-77.67,64.63-35.93,121.83-84.19,193.09-107.93C1568.3-29,1726.44,27.47,1809,130.64s95.86,242.38,58.39,364.9c-31.92,104.37-100.4,201.5-200,262.28S1436,839.51,1323,802c-90.67-30.07-162.33-93.26-246.22-136.4C999.33,625.81,912,603.47,823.86,591c-197.08-27.8-402.41-6.78-587.49,60.15-34.79,12.58-69.45,26.89-106.64,31.21s-78.38-3.11-103.54-28.1C-8.38,620-1.74,567.1,7,521.45Q11.92,496,16.8,470.59c2.21-11.49,2.94-22.39.57-33.87-2.21-10.72-3.26-20.89-1.8-31.8a245,245,0,0,1,8.49-38.22,285.18,285.18,0,0,1,33.19-71.54,309.24,309.24,0,0,1,52.27-61.69,315.13,315.13,0,0,1,68.24-47.23C180.73,184.71,183.73,183.21,186.77,181.81Z"/></g></g></svg>