<svg xmlns="http://www.w3.org/2000/svg" viewBox="0 0 1813.84 674.84"><defs><style>.cls-1{fill:#900dff;}</style></defs><g id="Layer_2" data-name="Layer 2"><g id="Layer_1-2" data-name="Layer 1"><path class="cls-1" d="M32,355.88c26.42-54.38,61.15-137.48,164.73-181,101.71-42.7,216-21,323.23,1.29l229,47.55C812.57,237,878,250.25,941.94,238.34,1094,210,1198.33,49.07,1348.11,9.22c131.08-34.87,271,33.2,365.31,136.38,50.75,55.51,92.9,124.65,99.53,201.87,10.31,120-70.57,233.57-172.88,284.54s-220.92,49.75-332.42,30.75-220.26-54.61-332.31-69.49c-110-14.61-221.58-9-331.71-22.2-77.28-9.26-153.56-27.73-231.17-32.89-93.66-6.22-188.08,7-281.31-4.38-43.5-5.32-90-18.35-116.8-55.29S1.06,406.36,32,355.88"/></g></g></svg>