<svg xmlns="http://www.w3.org/2000/svg" viewBox="0 0 382.03 465.88"><defs><style>.cls-1{fill:#fae100;}</style></defs><g id="Layer_2" data-name="Layer 2"><g id="Layer_1-2" data-name="Layer 1"><path class="cls-1" d="M104.12,30.43C118.8,14.66,139.46-1.92,164.67.18c14.73,1.23,27.07,8.73,38.49,15.92L335,99.08c14.2,8.94,28.74,18.19,37.57,30.52,18.71,26.13,7.08,58.92-11.29,85.19s-43.34,50.55-52.3,79.53c-7.78,25.18-2.68,51.47-1.83,77.34s-3.73,53.8-26.59,72.92C249.84,470.24,195,471,154.05,455.89S82.76,413.21,53.73,386.47c-13.36-12.31-27.47-26.26-26.35-42.21.44-6.24,3.26-12.35,2.84-18.6C29.53,315.28,20.44,307.72,11,301c-7-5-10.81-9.63-11-17a319.83,319.83,0,0,1,5.46-63,348.25,348.25,0,0,1,18.38-64.62,379.12,379.12,0,0,1,31-61.76,414.11,414.11,0,0,1,43-57.4Q101,33.82,104.12,30.43Z"/></g></g></svg>