<svg xmlns="http://www.w3.org/2000/svg" viewBox="0 0 1889.58 726.15"><defs><style>.cls-1{fill:#fae100;}</style></defs><g id="Layer_2" data-name="Layer 2"><g id="Layer_1-2" data-name="Layer 1"><path class="cls-1" d="M102.4,234.63c92.73-80.14,222.69-104.65,345-97.51s241,42.42,360.77,68.5c67.92,14.8,139.13,26.61,206.33,8.82,131.35-34.78,216-173.12,347.71-206.47,81.07-20.52,166.08,2.43,246.52,25.26C1678,52.87,1754.66,78.39,1787.5,142.39c15.41,30,19.22,65.75,39.19,92.94,14.36,19.53,36,33.07,48.8,53.67,11.65,18.8,14.72,41.77,14,63.87-2.44,73-43.76,140.51-98.17,189.23s-121.21,81.16-188,110.74c-80.13,35.49-163.56,68.21-251.08,72.74C1144.19,736.35,963.06,589.73,761,539c-159.54-40.1-334-17.46-478,62-33.07,18.26-64.82,39.49-100.3,52.49s-76.33,16.94-110.29.37c-28-13.69-49.58-44.48-47.93-76.33.33-6.33,2-12.76.06-19-2.27-7.31-6.41-14.15-9.23-21.28A217.67,217.67,0,0,1,3.28,493.71C-1.8,463.71-.8,432.83,5,403A304.06,304.06,0,0,1,94,242.16Q98.14,238.31,102.4,234.63Z"/></g></g></svg>